<svg xmlns="http://www.w3.org/2000/svg" width="416.95" height="35" viewBox="0 0 416.95 35"><rect class="svg__rect" x="0" y="0" width="142.71999999999997" height="35" fill="#31C4F3"/><rect class="svg__rect" x="140.71999999999997" y="0" width="276.23" height="35" fill="#389AD5"/><path class="svg__text" d="M13.95 18.19L13.95 18.19L13.95 17.39Q13.95 16.19 14.38 15.27Q14.80 14.35 15.60 13.85Q16.40 13.35 17.45 13.35L17.45 13.35Q18.86 13.35 19.73 14.12Q20.59 14.89 20.73 16.29L20.73 16.29L19.25 16.29Q19.14 15.37 18.71 14.96Q18.28 14.55 17.45 14.55L17.45 14.55Q16.48 14.55 15.97 15.26Q15.45 15.96 15.44 17.33L15.44 17.33L15.44 18.09Q15.44 19.47 15.93 20.20Q16.43 20.92 17.38 20.92L17.38 20.92Q18.25 20.92 18.69 20.53Q19.13 20.14 19.25 19.22L19.25 19.22L20.73 19.22Q20.60 20.59 19.72 21.35Q18.84 22.12 17.38 22.12L17.38 22.12Q16.36 22.12 15.59 21.63Q14.81 21.15 14.39 20.26Q13.97 19.37 13.95 18.19ZM26.52 22L25.04 22L25.04 13.47L28.04 13.47Q29.52 13.47 30.32 14.13Q31.12 14.79 31.12 16.05L31.12 16.05Q31.12 16.90 30.71 17.48Q30.30 18.06 29.56 18.37L29.56 18.37L31.47 21.92L31.47 22L29.89 22L28.17 18.71L26.52 18.71L26.52 22ZM26.52 14.66L26.52 17.52L28.05 17.52Q28.80 17.52 29.22 17.15Q29.64 16.77 29.64 16.11L29.64 16.11Q29.64 15.43 29.25 15.05Q28.86 14.68 28.09 14.66L28.09 14.66L26.52 14.66ZM41.09 22L35.52 22L35.52 13.47L41.05 13.47L41.05 14.66L37.00 14.66L37.00 17.02L40.50 17.02L40.50 18.19L37.00 18.19L37.00 20.82L41.09 20.82L41.09 22ZM46.07 22L44.53 22L47.75 13.47L49.08 13.47L52.31 22L50.76 22L50.06 20.01L46.76 20.01L46.07 22ZM48.41 15.28L47.18 18.82L49.65 18.82L48.41 15.28ZM57.95 14.66L55.31 14.66L55.31 13.47L62.08 13.47L62.08 14.66L59.42 14.66L59.42 22L57.95 22L57.95 14.66ZM71.41 22L65.83 22L65.83 13.47L71.37 13.47L71.37 14.66L67.31 14.66L67.31 17.02L70.82 17.02L70.82 18.19L67.31 18.19L67.31 20.82L71.41 20.82L71.41 22ZM78.06 22L75.61 22L75.61 13.47L78.13 13.47Q79.26 13.47 80.13 13.97Q81.01 14.48 81.49 15.40Q81.97 16.33 81.97 17.52L81.97 17.52L81.97 17.95Q81.97 19.16 81.49 20.08Q81.00 21.00 80.11 21.50Q79.22 22 78.06 22L78.06 22ZM77.09 14.66L77.09 20.82L78.06 20.82Q79.22 20.82 79.85 20.09Q80.47 19.36 80.48 17.99L80.48 17.99L80.48 17.52Q80.48 16.13 79.88 15.40Q79.27 14.66 78.13 14.66L78.13 14.66L77.09 14.66ZM93.79 22L91.82 13.47L93.30 13.47L94.62 19.88L96.25 13.47L97.49 13.47L99.10 19.89L100.41 13.47L101.89 13.47L99.92 22L98.50 22L96.88 15.77L95.22 22L93.79 22ZM107.52 22L106.05 22L106.05 13.47L107.52 13.47L107.52 22ZM114.01 14.66L111.38 14.66L111.38 13.47L118.14 13.47L118.14 14.66L115.48 14.66L115.48 22L114.01 22L114.01 14.66ZM123.38 22L121.90 22L121.90 13.47L123.38 13.47L123.38 17.02L127.20 17.02L127.20 13.47L128.67 13.47L128.67 22L127.20 22L127.20 18.21L123.38 18.21L123.38 22Z" fill="#FFFFFF"/><path class="svg__text" d="M154.48 17.80L154.48 17.80Q154.48 16.54 155.08 15.54Q155.68 14.55 156.74 13.99Q157.81 13.43 159.16 13.43L159.16 13.43Q160.33 13.43 161.27 13.83Q162.21 14.22 162.83 14.97L162.83 14.97L161.32 16.33Q160.47 15.40 159.30 15.40L159.30 15.40Q159.28 15.40 159.28 15.40L159.28 15.40Q158.20 15.40 157.54 16.06Q156.88 16.71 156.88 17.80L156.88 17.80Q156.88 18.50 157.18 19.04Q157.48 19.59 158.02 19.89Q158.56 20.20 159.26 20.20L159.26 20.20Q159.94 20.20 160.54 19.93L160.54 19.93L160.54 17.62L162.64 17.62L162.64 21.10Q161.92 21.61 160.98 21.89Q160.05 22.17 159.11 22.17L159.11 22.17Q157.79 22.17 156.73 21.61Q155.68 21.05 155.08 20.05Q154.48 19.06 154.48 17.80ZM170.01 22L167.63 22L167.63 13.60L171.47 13.60Q172.61 13.60 173.45 13.98Q174.29 14.35 174.75 15.06Q175.20 15.76 175.20 16.71L175.20 16.71Q175.20 17.62 174.78 18.30Q174.35 18.98 173.56 19.36L173.56 19.36L175.37 22L172.83 22L171.30 19.77L170.01 19.77L170.01 22ZM170.01 15.47L170.01 17.93L171.33 17.93Q172.06 17.93 172.43 17.61Q172.80 17.29 172.80 16.71L172.80 16.71Q172.80 16.12 172.43 15.79Q172.06 15.47 171.33 15.47L171.33 15.47L170.01 15.47ZM181.41 22L178.98 22L182.69 13.60L185.04 13.60L188.75 22L186.28 22L185.62 20.37L182.07 20.37L181.41 22ZM183.85 15.93L182.76 18.61L184.93 18.61L183.85 15.93ZM195.28 22L192.91 22L192.91 13.60L196.75 13.60Q197.89 13.60 198.73 13.98Q199.57 14.35 200.03 15.06Q200.48 15.76 200.48 16.71L200.48 16.71Q200.48 17.66 200.03 18.35Q199.57 19.05 198.73 19.42Q197.89 19.80 196.75 19.80L196.75 19.80L195.28 19.80L195.28 22ZM195.28 15.47L195.28 17.93L196.60 17.93Q197.34 17.93 197.71 17.61Q198.08 17.29 198.08 16.71L198.08 16.71Q198.08 16.12 197.71 15.80Q197.34 15.47 196.60 15.47L196.60 15.47L195.28 15.47ZM207.61 22L205.23 22L205.23 13.60L207.61 13.60L207.61 16.76L210.85 16.76L210.85 13.60L213.23 13.60L213.23 22L210.85 22L210.85 18.72L207.61 18.72L207.61 22ZM227.69 22L225.36 22L225.36 13.60L227.32 13.60L231.03 18.07L231.03 13.60L233.35 13.60L233.35 22L231.40 22L227.69 17.52L227.69 22ZM245.26 22L238.52 22L238.52 13.60L245.11 13.60L245.11 15.44L240.87 15.44L240.87 16.85L244.60 16.85L244.60 18.63L240.87 18.63L240.87 20.17L245.26 20.17L245.26 22ZM249.99 18.26L249.99 18.26L249.99 13.60L252.37 13.60L252.37 18.19Q252.37 20.20 253.97 20.20L253.97 20.20Q255.55 20.20 255.55 18.19L255.55 18.19L255.55 13.60L257.89 13.60L257.89 18.26Q257.89 20.13 256.85 21.15Q255.81 22.17 253.94 22.17L253.94 22.17Q252.07 22.17 251.03 21.15Q249.99 20.13 249.99 18.26ZM265.36 22L262.98 22L262.98 13.60L266.82 13.60Q267.96 13.60 268.80 13.98Q269.64 14.35 270.10 15.06Q270.55 15.76 270.55 16.71L270.55 16.71Q270.55 17.62 270.13 18.30Q269.70 18.98 268.91 19.36L268.91 19.36L270.72 22L268.18 22L266.65 19.77L265.36 19.77L265.36 22ZM265.36 15.47L265.36 17.93L266.68 17.93Q267.41 17.93 267.78 17.61Q268.15 17.29 268.15 16.71L268.15 16.71Q268.15 16.12 267.78 15.79Q267.41 15.47 266.68 15.47L266.68 15.47L265.36 15.47ZM276.76 22L274.33 22L278.04 13.60L280.39 13.60L284.10 22L281.63 22L280.97 20.37L277.42 20.37L276.76 22ZM279.20 15.93L278.11 18.61L280.28 18.61L279.20 15.93ZM294.64 22L288.26 22L288.26 13.60L290.63 13.60L290.63 20.11L294.64 20.11L294.64 22ZM308.36 22L306.03 22L306.03 13.60L307.99 13.60L311.70 18.07L311.70 13.60L314.03 13.60L314.03 22L312.07 22L308.36 17.52L308.36 22ZM325.93 22L319.19 22L319.19 13.60L325.78 13.60L325.78 15.44L321.54 15.44L321.54 16.85L325.28 16.85L325.28 18.63L321.54 18.63L321.54 20.17L325.93 20.17L325.93 22ZM332.53 15.48L329.94 15.48L329.94 13.60L337.47 13.60L337.47 15.48L334.90 15.48L334.90 22L332.53 22L332.53 15.48ZM343.92 22L341.19 13.60L343.64 13.60L345.33 18.96L347.11 13.60L349.29 13.60L350.99 19.01L352.75 13.60L355.02 13.60L352.29 22L349.75 22L348.14 16.89L346.46 22L343.92 22ZM359.10 17.80L359.10 17.80Q359.10 16.55 359.70 15.55Q360.31 14.56 361.37 14.00Q362.44 13.43 363.77 13.43L363.77 13.43Q365.10 13.43 366.16 14.00Q367.22 14.56 367.83 15.55Q368.44 16.55 368.44 17.80L368.44 17.80Q368.44 19.05 367.83 20.04Q367.22 21.04 366.16 21.60Q365.10 22.17 363.77 22.17L363.77 22.17Q362.44 22.17 361.37 21.60Q360.31 21.04 359.70 20.04Q359.10 19.05 359.10 17.80ZM361.50 17.80L361.50 17.80Q361.50 18.51 361.80 19.05Q362.10 19.60 362.62 19.90Q363.13 20.20 363.77 20.20L363.77 20.20Q364.40 20.20 364.92 19.90Q365.44 19.60 365.73 19.05Q366.03 18.51 366.03 17.80L366.03 17.80Q366.03 17.09 365.73 16.54Q365.44 16 364.92 15.70Q364.40 15.40 363.77 15.40L363.77 15.40Q363.13 15.40 362.61 15.70Q362.10 16 361.80 16.54Q361.50 17.09 361.50 17.80ZM375.54 22L373.16 22L373.16 13.60L377.01 13.60Q378.15 13.60 378.99 13.98Q379.83 14.35 380.28 15.06Q380.74 15.76 380.74 16.71L380.74 16.71Q380.74 17.62 380.31 18.30Q379.88 18.98 379.09 19.36L379.09 19.36L380.90 22L378.36 22L376.84 19.77L375.54 19.77L375.54 22ZM375.54 15.47L375.54 17.93L376.86 17.93Q377.59 17.93 377.97 17.61Q378.34 17.29 378.34 16.71L378.34 16.71Q378.34 16.12 377.97 15.79Q377.59 15.47 376.86 15.47L376.86 15.47L375.54 15.47ZM387.88 22L385.53 22L385.53 13.60L387.88 13.60L387.88 17.09L391.13 13.60L393.75 13.60L390.32 17.32L393.93 22L391.17 22L388.77 18.95L387.88 19.90L387.88 22ZM397.45 21.24L397.45 21.24L398.23 19.49Q398.79 19.86 399.54 20.09Q400.28 20.32 401.00 20.32L401.00 20.32Q402.37 20.32 402.37 19.64L402.37 19.64Q402.37 19.28 401.98 19.11Q401.59 18.93 400.73 18.74L400.73 18.74Q399.78 18.53 399.14 18.30Q398.51 18.06 398.05 17.55Q397.60 17.03 397.60 16.16L397.60 16.16Q397.60 15.39 398.02 14.77Q398.44 14.15 399.27 13.79Q400.11 13.43 401.31 13.43L401.31 13.43Q402.14 13.43 402.94 13.62Q403.75 13.80 404.36 14.17L404.36 14.17L403.63 15.93Q402.43 15.28 401.30 15.28L401.30 15.28Q400.59 15.28 400.27 15.49Q399.95 15.70 399.95 16.04L399.95 16.04Q399.95 16.37 400.33 16.54Q400.71 16.71 401.56 16.89L401.56 16.89Q402.53 17.10 403.15 17.33Q403.78 17.56 404.25 18.07Q404.71 18.58 404.71 19.46L404.71 19.46Q404.71 20.21 404.29 20.83Q403.87 21.44 403.03 21.80Q402.19 22.17 400.99 22.17L400.99 22.17Q399.97 22.17 399.01 21.92Q398.05 21.67 397.45 21.24Z" fill="#FFFFFF" x="153.71999999999997"/></svg>