<svg xmlns="http://www.w3.org/2000/svg" width="248.27999999999997" height="35" viewBox="0 0 248.27999999999997 35"><rect class="svg__rect" x="0" y="0" width="142.71999999999997" height="35" fill="#8FC965"/><rect class="svg__rect" x="140.71999999999997" y="0" width="107.56" height="35" fill="#419B5A"/><path class="svg__text" d="M13.95 18.19L13.95 18.19L13.95 17.39Q13.95 16.19 14.38 15.27Q14.80 14.35 15.60 13.85Q16.40 13.35 17.45 13.35L17.45 13.35Q18.86 13.35 19.73 14.12Q20.59 14.89 20.73 16.29L20.73 16.29L19.25 16.29Q19.14 15.37 18.71 14.96Q18.28 14.55 17.45 14.55L17.45 14.55Q16.48 14.55 15.97 15.26Q15.45 15.96 15.44 17.33L15.44 17.33L15.44 18.09Q15.44 19.47 15.93 20.20Q16.43 20.92 17.38 20.92L17.38 20.92Q18.25 20.92 18.69 20.53Q19.13 20.14 19.25 19.22L19.25 19.22L20.73 19.22Q20.60 20.59 19.72 21.35Q18.84 22.12 17.38 22.12L17.38 22.12Q16.36 22.12 15.59 21.63Q14.81 21.15 14.39 20.26Q13.97 19.37 13.95 18.19ZM26.52 22L25.04 22L25.04 13.47L28.04 13.47Q29.52 13.47 30.32 14.13Q31.12 14.79 31.12 16.05L31.12 16.05Q31.12 16.90 30.71 17.48Q30.30 18.06 29.56 18.37L29.56 18.37L31.47 21.92L31.47 22L29.89 22L28.17 18.71L26.52 18.71L26.52 22ZM26.52 14.66L26.52 17.52L28.05 17.52Q28.80 17.52 29.22 17.15Q29.64 16.77 29.64 16.11L29.64 16.11Q29.64 15.43 29.25 15.05Q28.86 14.68 28.09 14.66L28.09 14.66L26.52 14.66ZM41.09 22L35.52 22L35.52 13.47L41.05 13.47L41.05 14.66L37.00 14.66L37.00 17.02L40.50 17.02L40.50 18.19L37.00 18.19L37.00 20.82L41.09 20.82L41.09 22ZM46.07 22L44.53 22L47.75 13.47L49.08 13.47L52.31 22L50.76 22L50.06 20.01L46.76 20.01L46.07 22ZM48.41 15.28L47.18 18.82L49.65 18.82L48.41 15.28ZM57.95 14.66L55.31 14.66L55.31 13.47L62.08 13.47L62.08 14.66L59.42 14.66L59.42 22L57.95 22L57.95 14.66ZM71.41 22L65.83 22L65.83 13.47L71.37 13.47L71.37 14.66L67.31 14.66L67.31 17.02L70.82 17.02L70.82 18.19L67.31 18.19L67.31 20.82L71.41 20.82L71.41 22ZM78.06 22L75.61 22L75.61 13.47L78.13 13.47Q79.26 13.47 80.13 13.97Q81.01 14.48 81.49 15.40Q81.97 16.33 81.97 17.52L81.97 17.52L81.97 17.95Q81.97 19.16 81.49 20.08Q81.00 21.00 80.11 21.50Q79.22 22 78.06 22L78.06 22ZM77.09 14.66L77.09 20.82L78.06 20.82Q79.22 20.82 79.85 20.09Q80.47 19.36 80.48 17.99L80.48 17.99L80.48 17.52Q80.48 16.13 79.88 15.40Q79.27 14.66 78.13 14.66L78.13 14.66L77.09 14.66ZM93.79 22L91.82 13.47L93.30 13.47L94.62 19.88L96.25 13.47L97.49 13.47L99.10 19.89L100.41 13.47L101.89 13.47L99.92 22L98.50 22L96.88 15.77L95.22 22L93.79 22ZM107.52 22L106.05 22L106.05 13.47L107.52 13.47L107.52 22ZM114.01 14.66L111.38 14.66L111.38 13.47L118.14 13.47L118.14 14.66L115.48 14.66L115.48 22L114.01 22L114.01 14.66ZM123.38 22L121.90 22L121.90 13.47L123.38 13.47L123.38 17.02L127.20 17.02L127.20 13.47L128.67 13.47L128.67 22L127.20 22L127.20 18.21L123.38 18.21L123.38 22Z" fill="#FFFFFF"/><path class="svg__text" d="M157.29 22L154.91 22L154.91 13.60L158.75 13.60Q159.89 13.60 160.73 13.98Q161.57 14.35 162.03 15.06Q162.48 15.76 162.48 16.71L162.48 16.71Q162.48 17.66 162.03 18.35Q161.57 19.05 160.73 19.42Q159.89 19.80 158.75 19.80L158.75 19.80L157.29 19.80L157.29 22ZM157.29 15.47L157.29 17.93L158.61 17.93Q159.34 17.93 159.71 17.61Q160.08 17.29 160.08 16.71L160.08 16.71Q160.08 16.12 159.71 15.80Q159.34 15.47 158.61 15.47L158.61 15.47L157.29 15.47ZM169.36 18.95L166.16 13.60L168.67 13.60L170.66 16.94L172.65 13.60L174.95 13.60L171.74 18.99L171.74 22L169.36 22L169.36 18.95ZM180.83 15.48L178.25 15.48L178.25 13.60L185.77 13.60L185.77 15.48L183.20 15.48L183.20 22L180.83 22L180.83 15.48ZM189.71 17.80L189.71 17.80Q189.71 16.55 190.32 15.55Q190.92 14.56 191.98 14.00Q193.05 13.43 194.38 13.43L194.38 13.43Q195.71 13.43 196.77 14.00Q197.83 14.56 198.44 15.55Q199.05 16.55 199.05 17.80L199.05 17.80Q199.05 19.05 198.44 20.04Q197.83 21.04 196.77 21.60Q195.71 22.17 194.38 22.17L194.38 22.17Q193.05 22.17 191.98 21.60Q190.92 21.04 190.32 20.04Q189.71 19.05 189.71 17.80ZM192.11 17.80L192.11 17.80Q192.11 18.51 192.41 19.05Q192.71 19.60 193.23 19.90Q193.74 20.20 194.38 20.20L194.38 20.20Q195.02 20.20 195.53 19.90Q196.05 19.60 196.35 19.05Q196.64 18.51 196.64 17.80L196.64 17.80Q196.64 17.09 196.35 16.54Q196.05 16 195.53 15.70Q195.02 15.40 194.38 15.40L194.38 15.40Q193.74 15.40 193.23 15.70Q192.71 16 192.41 16.54Q192.11 17.09 192.11 17.80ZM206.15 22L203.78 22L203.78 13.60L207.62 13.60Q208.76 13.60 209.60 13.98Q210.44 14.35 210.89 15.06Q211.35 15.76 211.35 16.71L211.35 16.71Q211.35 17.62 210.92 18.30Q210.50 18.98 209.70 19.36L209.70 19.36L211.52 22L208.97 22L207.45 19.77L206.15 19.77L206.15 22ZM206.15 15.47L206.15 17.93L207.47 17.93Q208.20 17.93 208.58 17.61Q208.95 17.29 208.95 16.71L208.95 16.71Q208.95 16.12 208.58 15.79Q208.20 15.47 207.47 15.47L207.47 15.47L206.15 15.47ZM215.71 17.80L215.71 17.80Q215.71 16.54 216.31 15.54Q216.91 14.55 217.96 13.99Q219.01 13.43 220.33 13.43L220.33 13.43Q221.48 13.43 222.40 13.84Q223.33 14.25 223.94 15.02L223.94 15.02L222.43 16.39Q221.62 15.40 220.45 15.40L220.45 15.40Q219.77 15.40 219.23 15.70Q218.70 16 218.40 16.54Q218.11 17.09 218.11 17.80L218.11 17.80Q218.11 18.51 218.40 19.05Q218.70 19.60 219.23 19.90Q219.77 20.20 220.45 20.20L220.45 20.20Q221.62 20.20 222.43 19.22L222.43 19.22L223.94 20.58Q223.33 21.35 222.41 21.76Q221.48 22.17 220.33 22.17L220.33 22.17Q219.01 22.17 217.96 21.61Q216.91 21.05 216.31 20.05Q215.71 19.06 215.71 17.80ZM230.86 22L228.48 22L228.48 13.60L230.86 13.60L230.86 16.76L234.10 16.76L234.10 13.60L236.47 13.60L236.47 22L234.10 22L234.10 18.72L230.86 18.72L230.86 22Z" fill="#FFFFFF" x="153.71999999999997"/></svg>