<svg xmlns="http://www.w3.org/2000/svg" width="208.25" height="35"><path fill="#d15d27" d="M21.813 0h186.438v35H21.813z"/><path fill="#e36d25" d="M0 0h112.5v35H0z"/><path d="M130.78 15.628a4.265 4.265 0 00-1.32-.276.9.9 0 00-.51.126.414.414 0 00-.186.366.572.572 0 00.359.522 6.4 6.4 0 001.141.4 11.024 11.024 0 011.464.51 2.7 2.7 0 011 .786 2.154 2.154 0 01.426 1.392 2.372 2.372 0 01-.462 1.481 2.774 2.774 0 01-1.248.906 4.9 4.9 0 01-1.758.3 6.739 6.739 0 01-2.166-.366 6.008 6.008 0 01-1.878-1l.936-1.9a5.6 5.6 0 001.554.93 4.279 4.279 0 001.578.378 1.122 1.122 0 00.637-.155.509.509 0 00.228-.444.58.58 0 00-.372-.534 6.322 6.322 0 00-1.152-.39 10.522 10.522 0 01-1.451-.474 2.568 2.568 0 01-1-.762 2.081 2.081 0 01-.42-1.356 2.385 2.385 0 01.432-1.422 2.729 2.729 0 011.218-.93 4.771 4.771 0 011.83-.324 6.76 6.76 0 011.884.27 6.255 6.255 0 011.633.714l-.925 1.92a8.036 8.036 0 00-1.472-.668zm11.071.186a2.17 2.17 0 00-1.062-.306 1.869 1.869 0 00-1.02.288 2.012 2.012 0 00-.721.8 2.621 2.621 0 000 2.292 2.054 2.054 0 00.721.8 1.838 1.838 0 001.02.294 2.371 2.371 0 001.026-.264 3.355 3.355 0 00.978-.72l1.44 1.536a5.106 5.106 0 01-1.65 1.188 4.59 4.59 0 01-4.187-.126 4.122 4.122 0 01-1.59-1.578 4.456 4.456 0 01-.576-2.255 4.249 4.249 0 01.588-2.214A4.171 4.171 0 01138.437 14a4.838 4.838 0 014.212-.156 4.631 4.631 0 011.584 1.092l-1.44 1.716a3.015 3.015 0 00-.942-.838zm5.777-2.226h2.5V22h-2.5zm6.552 0h6.876v1.92h-4.38v1.32h3.972v1.92h-3.972v1.332h4.5V22h-7zm16.536 0H173V22h-2.124l-3.564-4.68V22h-2.292v-8.412h2.137l3.563 4.692zm11.478 2.226a2.17 2.17 0 00-1.062-.306 1.869 1.869 0 00-1.02.288 2.012 2.012 0 00-.721.8 2.621 2.621 0 000 2.292 2.054 2.054 0 00.721.8 1.838 1.838 0 001.02.294 2.371 2.371 0 001.026-.264 3.355 3.355 0 00.978-.72l1.44 1.536a5.106 5.106 0 01-1.65 1.188 4.59 4.59 0 01-4.187-.126 4.122 4.122 0 01-1.59-1.578 4.456 4.456 0 01-.576-2.255 4.249 4.249 0 01.588-2.214A4.171 4.171 0 01178.78 14a4.838 4.838 0 014.212-.156 4.631 4.631 0 011.584 1.092l-1.44 1.716a3.015 3.015 0 00-.942-.838zm5.778-2.226h6.876v1.92h-4.38v1.32h3.972v1.92h-3.972v1.332h4.5V22h-7zM13.867 22v-8.531h2.924a3.57 3.57 0 012.2.58 2.043 2.043 0 01.756 1.729 1.842 1.842 0 01-.316 1.055 2.037 2.037 0 01-.926.727 1.883 1.883 0 011.069.706 2.056 2.056 0 01.378 1.245 2.271 2.271 0 01-.771 1.846 3.35 3.35 0 01-2.202.643zm1.482-4.939H16.8a1.68 1.68 0 001.081-.313 1.074 1.074 0 00.39-.888 1.089 1.089 0 00-.36-.914 1.82 1.82 0 00-1.122-.281H15.35zm0 1.09V20.8H17a1.6 1.6 0 001.09-.344 1.206 1.206 0 00.393-.957 1.215 1.215 0 00-1.359-1.354zm14.969-4.682v5.7a2.771 2.771 0 01-.87 2.153 3.305 3.305 0 01-2.317.794 3.329 3.329 0 01-2.326-.782 2.784 2.784 0 01-.861-2.171v-5.7h1.477v5.7a1.809 1.809 0 00.434 1.3 1.7 1.7 0 001.277.45q1.711 0 1.711-1.8v-5.644zM36.1 22h-1.473v-8.531H36.1zm5.949-1.2h3.873V22h-5.356v-8.531h1.482zm12.613-6.136H52V22h-1.469v-7.336h-2.637v-1.2h6.768zm15.727 5.227l1.311-6.422h1.471L71.2 22h-1.415l-1.623-6.229L66.5 22h-1.42l-1.969-8.531h1.471l1.324 6.41 1.629-6.41h1.242zM78.46 22h-1.476v-8.531h1.476zm10.457-7.336h-2.66V22h-1.471v-7.336h-2.637v-1.2h6.768zM99.449 22h-1.476v-3.785h-3.815V22h-1.482v-8.531h1.482v3.551h3.814v-3.551h1.477z" fill="#fff"/></svg>