<svg xmlns="http://www.w3.org/2000/svg" width="257.21000000000004" height="35" viewBox="0 0 257.21000000000004 35"><rect class="svg__rect" x="0" y="0" width="133.42000000000002" height="35" fill="#EA4560"/><rect class="svg__rect" x="131.42000000000002" y="0" width="125.78999999999999" height="35" fill="#C13B3A"/><path class="svg__text" d="M15.70 22L14.22 22L14.22 13.47L15.70 13.47L15.70 17.02L19.51 17.02L19.51 13.47L20.99 13.47L20.99 22L19.51 22L19.51 18.21L15.70 18.21L15.70 22ZM25.46 18.00L25.46 18.00L25.46 17.52Q25.46 16.28 25.90 15.32Q26.35 14.37 27.15 13.86Q27.96 13.35 29.00 13.35Q30.04 13.35 30.85 13.85Q31.65 14.35 32.09 15.29Q32.53 16.23 32.54 17.48L32.54 17.48L32.54 17.96Q32.54 19.21 32.11 20.16Q31.67 21.10 30.87 21.61Q30.06 22.12 29.01 22.12L29.01 22.12Q27.98 22.12 27.16 21.61Q26.35 21.10 25.91 20.17Q25.47 19.23 25.46 18.00ZM26.94 17.46L26.94 17.96Q26.94 19.36 27.49 20.13Q28.04 20.90 29.01 20.90L29.01 20.90Q30.00 20.90 30.53 20.15Q31.06 19.40 31.06 17.96L31.06 17.96L31.06 17.51Q31.06 16.09 30.52 15.34Q29.98 14.58 29.00 14.58L29.00 14.58Q28.04 14.58 27.50 15.33Q26.96 16.09 26.94 17.46L26.94 17.46ZM36.57 19.42L36.57 19.42L38.05 19.42Q38.05 20.15 38.53 20.55Q39.01 20.95 39.91 20.95L39.91 20.95Q40.68 20.95 41.07 20.63Q41.46 20.32 41.46 19.80L41.46 19.80Q41.46 19.24 41.07 18.94Q40.67 18.63 39.64 18.32Q38.61 18.01 38.00 17.63L38.00 17.63Q36.83 16.90 36.83 15.72L36.83 15.72Q36.83 14.69 37.68 14.02Q38.52 13.35 39.86 13.35L39.86 13.35Q40.75 13.35 41.45 13.68Q42.14 14.01 42.54 14.61Q42.94 15.22 42.94 15.96L42.94 15.96L41.46 15.96Q41.46 15.29 41.04 14.91Q40.63 14.54 39.85 14.54L39.85 14.54Q39.12 14.54 38.72 14.85Q38.32 15.16 38.32 15.71L38.32 15.71Q38.32 16.18 38.75 16.50Q39.18 16.81 40.18 17.10Q41.18 17.40 41.78 17.78Q42.38 18.16 42.66 18.65Q42.95 19.13 42.95 19.79L42.95 19.79Q42.95 20.86 42.13 21.49Q41.31 22.12 39.91 22.12L39.91 22.12Q38.98 22.12 38.21 21.77Q37.43 21.43 37.00 20.83Q36.57 20.22 36.57 19.42ZM48.92 14.66L46.28 14.66L46.28 13.47L53.05 13.47L53.05 14.66L50.39 14.66L50.39 22L48.92 22L48.92 14.66ZM62.38 22L56.80 22L56.80 13.47L62.34 13.47L62.34 14.66L58.29 14.66L58.29 17.02L61.79 17.02L61.79 18.19L58.29 18.19L58.29 20.82L62.38 20.82L62.38 22ZM69.03 22L66.58 22L66.58 13.47L69.10 13.47Q70.23 13.47 71.10 13.97Q71.98 14.48 72.46 15.40Q72.94 16.33 72.94 17.52L72.94 17.52L72.94 17.95Q72.94 19.16 72.46 20.08Q71.97 21.00 71.08 21.50Q70.19 22 69.03 22L69.03 22ZM68.06 14.66L68.06 20.82L69.03 20.82Q70.19 20.82 70.82 20.09Q71.44 19.36 71.45 17.99L71.45 17.99L71.45 17.52Q71.45 16.13 70.85 15.40Q70.24 14.66 69.10 14.66L69.10 14.66L68.06 14.66ZM84.76 22L82.80 13.47L84.27 13.47L85.59 19.88L87.22 13.47L88.46 13.47L90.07 19.89L91.39 13.47L92.86 13.47L90.89 22L89.47 22L87.85 15.77L86.19 22L84.76 22ZM98.49 22L97.02 22L97.02 13.47L98.49 13.47L98.49 22ZM104.98 14.66L102.35 14.66L102.35 13.47L109.12 13.47L109.12 14.66L106.46 14.66L106.46 22L104.98 22L104.98 14.66ZM114.35 22L112.87 22L112.87 13.47L114.35 13.47L114.35 17.02L118.17 17.02L118.17 13.47L119.64 13.47L119.64 22L118.17 22L118.17 18.21L114.35 18.21L114.35 22Z" fill="#FFFFFF"/><path class="svg__text" d="M145.02 21.24L145.02 21.24L145.80 19.49Q146.36 19.86 147.11 20.09Q147.85 20.32 148.57 20.32L148.57 20.32Q149.94 20.32 149.94 19.64L149.94 19.64Q149.94 19.28 149.55 19.11Q149.16 18.93 148.30 18.74L148.30 18.74Q147.35 18.53 146.71 18.30Q146.08 18.06 145.62 17.55Q145.17 17.03 145.17 16.16L145.17 16.16Q145.17 15.39 145.59 14.77Q146.01 14.15 146.84 13.79Q147.68 13.43 148.88 13.43L148.88 13.43Q149.71 13.43 150.52 13.62Q151.32 13.80 151.94 14.17L151.94 14.17L151.20 15.93Q150.00 15.28 148.87 15.28L148.87 15.28Q148.16 15.28 147.84 15.49Q147.52 15.70 147.52 16.04L147.52 16.04Q147.52 16.37 147.90 16.54Q148.29 16.71 149.14 16.89L149.14 16.89Q150.10 17.10 150.73 17.33Q151.36 17.56 151.82 18.07Q152.28 18.58 152.28 19.46L152.28 19.46Q152.28 20.21 151.86 20.83Q151.44 21.44 150.60 21.80Q149.76 22.17 148.56 22.17L148.56 22.17Q147.54 22.17 146.58 21.92Q145.62 21.67 145.02 21.24ZM158.65 15.48L156.07 15.48L156.07 13.60L163.59 13.60L163.59 15.48L161.02 15.48L161.02 22L158.65 22L158.65 15.48ZM170.34 22L167.96 22L167.96 13.60L171.81 13.60Q172.95 13.60 173.79 13.98Q174.62 14.35 175.08 15.06Q175.54 15.76 175.54 16.71L175.54 16.71Q175.54 17.62 175.11 18.30Q174.68 18.98 173.89 19.36L173.89 19.36L175.70 22L173.16 22L171.64 19.77L170.34 19.77L170.34 22ZM170.34 15.47L170.34 17.93L171.66 17.93Q172.39 17.93 172.76 17.61Q173.14 17.29 173.14 16.71L173.14 16.71Q173.14 16.12 172.76 15.79Q172.39 15.47 171.66 15.47L171.66 15.47L170.34 15.47ZM187.07 22L180.32 22L180.32 13.60L186.92 13.60L186.92 15.44L182.68 15.44L182.68 16.85L186.41 16.85L186.41 18.63L182.68 18.63L182.68 20.17L187.07 20.17L187.07 22ZM193.29 22L190.87 22L194.57 13.60L196.92 13.60L200.63 22L198.17 22L197.50 20.37L193.95 20.37L193.29 22ZM195.73 15.93L194.65 18.61L196.81 18.61L195.73 15.93ZM206.98 22L204.79 22L204.79 13.60L206.74 13.60L209.70 18.45L212.58 13.60L214.53 13.60L214.56 22L212.38 22L212.35 17.55L210.19 21.17L209.14 21.17L206.98 17.67L206.98 22ZM226.10 22L219.72 22L219.72 13.60L222.10 13.60L222.10 20.11L226.10 20.11L226.10 22ZM232.90 22L230.52 22L230.52 13.60L232.90 13.60L232.90 22ZM239.87 15.48L237.28 15.48L237.28 13.60L244.81 13.60L244.81 15.48L242.24 15.48L242.24 22L239.87 22L239.87 15.48Z" fill="#FFFFFF" x="144.42000000000002"/></svg>